PathFileType	4	(X/Y/Z)	69_2_68_p1_0-401.trc
DataRate	CameraRate	NumFrames	NumMarkers	Units	OrigDataRate	OrigDataStartFrame	OrigNumFrames
59.0	59.0	6	27	m	59.0	50	402
Frame#	Time	RHip			RKnee			RAnkle			RBigToe			RSmallToe			RHeel			LHip			LKnee			LAnkle			LBigToe			LSmallToe			LHeel			Neck			Head			Nose			RShoulder			RElbow			RWrist			RThumb			RIndex			RPinky			LShoulder			LElbow			LWrist			LThumb			LIndex			LPinky			
		X1	Y1	Z1	X2	Y2	Z2	X3	Y3	Z3	X4	Y4	Z4	X5	Y5	Z5	X6	Y6	Z6	X7	Y7	Z7	X8	Y8	Z8	X9	Y9	Z9	X10	Y10	Z10	X11	Y11	Z11	X12	Y12	Z12	X13	Y13	Z13	X14	Y14	Z14	X15	Y15	Z15	X16	Y16	Z16	X17	Y17	Z17	X18	Y18	Z18	X19	Y19	Z19	X20	Y20	Z20	X21	Y21	Z21	X22	Y22	Z22	X23	Y23	Z23	X24	Y24	Z24	X25	Y25	Z25	X26	Y26	Z26	X27	Y27	Z27	
50	0.847457627118644	0.30450408621961583	0.5066603514998006	0.5173281491007238	0.27490400522377506	0.5141777050444123	0.9238434073626102	0.20798364399159336	0.5685184550975865	1.3383607815343155	0.25490822861725515	0.38694570407258116	1.312976899181825	0.29801457428145095	0.4450858441374646	1.3406382785380195	0.1469049593515847	0.6908443450511259	1.4606222771003163	0.09584157426544403	0.4493959674559633	0.5272174217117473	0.06668829808190807	0.4442559243918274	0.9217515869817491	0.02796805541702498	0.48699505512538066	1.3273219335380462	0.14212618338365818	0.35269119153330686	1.3035880986837816	0.08649295337106161	0.36246562391189074	1.3139397941887556	-0.0020198064478624024	0.5395832891781797	1.392512383114686	0.2313217588212083	0.4461284597625151	0.006262166920862128	0.25798169178240266	0.4354367363415379	-0.24630649214933958	0.30862324845188605	0.32926076777628244	-0.12862878982797749	0.390409940787176	0.4926395787238067	0.07746907466491461	0.5862652863145136	0.5324893882893077	0.1904117784895958	0.7750487571848231	0.5898206938483386	0.32188866216785783	0.8555925322254404	0.5290546538836233	0.3734030938011353	0.8863959878821907	0.6185433852894064	0.40430512342434266	0.8491318350974539	0.6193872904176844	0.4017316108498694	0.06134333866902749	0.3825757192843684	0.07755785649574215	-0.11816245570786563	0.27791188358587	0.16131967016854604	-0.2896162427233903	0.17370229755573408	0.30578121543409703	-0.35099460042623093	0.1723022931525415	0.3852772113516379	-0.37502863380951684	0.15364088184505453	0.37638633122976534	-0.38433046368565393	0.16486237164797982	0.361928753852331
51	0.864406779661017	0.31645801502318527	0.5104254592584225	0.51324182673863	0.27434436475763463	0.5155124561374766	0.9198945547598588	0.20716636207065933	0.5676845933145824	1.3283052784272726	0.24853059041448328	0.40330291525854656	1.32213031507391	0.29787470424125734	0.4679830657533437	1.348438712072325	0.14468771871881142	0.692902901391431	1.4612442393440634	0.09625442642353617	0.44809005264247254	0.5223440184607747	0.056787869104700676	0.4550019662528664	0.9218674508503889	0.02533345086656595	0.48731182092935976	1.336120202654214	0.14851388896827825	0.3589825013341074	1.3011026223818811	0.07852114843243363	0.3763403240089461	1.32640348286747	0.0047307520204849995	0.5299266640266279	1.3822175929898006	0.23983352249481235	0.435780847308381	-0.013384856969779538	0.2581373146297717	0.4348508471258737	-0.26059739801308807	0.308735902022681	0.3294347429462529	-0.1419293340506761	0.3820296518338092	0.5063809207056169	0.061429979459475065	0.5907672604497984	0.5450666030075709	0.16153546242320058	0.7936485503723606	0.609990211078444	0.2776738203962033	0.8798145651963047	0.6110668000440831	0.33970287482292916	0.8964352417183794	0.6323281591138207	0.34973003223823756	0.8729331553384909	0.6418733056093056	0.3505853264037355	0.06185008652982056	0.38226061297715314	0.05881583846096113	-0.1293984801106471	0.2822932514255543	0.1322657975374525	-0.2914733258611739	0.16786268798900889	0.23267904161765368	-0.29782628700062524	0.09874853120406449	0.3022947786720392	-0.3692511145039379	0.11622818222441977	0.3040647212896054	-0.4071332295580065	0.12839231546660393	0.30651113772018823
52	0.8813559322033898	0.3167403424117676	0.4972288731537286	0.5019836806813773	0.27421499735199034	0.5169371190210722	0.9155583409220491	0.19636860388085337	0.583257156206819	1.3470945477986123	0.24904997520778704	0.4060794980458938	1.331738612512972	0.2980681874170514	0.4550577014728001	1.3455815632731853	0.1384364118458488	0.7095972728661372	1.4705261351290915	0.09657493177913479	0.4483981413292499	0.5141243715303402	0.055997996462857275	0.45501286403599345	0.9125742930450552	0.022729246941555564	0.4995707214491139	1.3383508988275319	0.13919454320974048	0.3700698063677098	1.3044934476785905	0.07103820574871132	0.39152805338122926	1.3358385932335306	0.0016409894116905966	0.5231361451632416	1.3781874070732618	0.24082970068421874	0.42435382162283874	-0.022218851953304402	0.2582993698522982	0.4338832448840654	-0.26800837670345456	0.30918480411819366	0.32805253996311223	-0.15177762399656156	0.3902050409168078	0.4954842917948397	0.04743515294772612	0.5858003887935272	0.5613734340281548	0.1341388488901737	0.7966101436746743	0.6216139387756401	0.21004559440552406	0.8903298656993222	0.6271901472246639	0.2807544157828	0.8997422973834744	0.6677320582816776	0.2900867720546511	0.8803012595870434	0.6413069904232331	0.2835597029272709	0.06421793445016062	0.36963494943413555	0.04136243687580503	-0.12168605416847238	0.25895411748069685	0.10270629864556963	-0.3056485908077983	0.16474037064403158	0.20326461840356594	-0.34290580087737893	0.10634726490615592	0.27416196040824214	-0.38371478468765163	0.09519236235560061	0.2516428359571019	-0.38421631959854147	0.09194576779743427	0.21669762042860552
53	0.8983050847457628	0.3249369296036668	0.5000618497211717	0.49689885899553715	0.29186296423271535	0.5033882004809727	0.9027384308099821	0.21564628614553633	0.5546650783909467	1.3247024842044974	0.2515875321058046	0.40530018523334976	1.3330024959734965	0.3074842877128736	0.4561898153524141	1.3385943629404067	0.14943170605995362	0.6938582611930298	1.4597988211606892	0.09848371705009647	0.4360379177482253	0.5028119958103575	0.05471774865566514	0.47017887906245104	0.9182532613234461	0.024494166638264717	0.4989055300925091	1.3333945539190002	0.13920510195040736	0.3731802429980682	1.3070546905173464	0.06844453009092981	0.38863954321415833	1.3350755744273877	0.005307831025961388	0.5274185062740947	1.3806788425562209	0.24117708972117044	0.42379327587968263	-0.03325647781825147	0.25836144328302	0.434557989421784	-0.2789650739642049	0.3092212929701436	0.32723717715275147	-0.15922356834043402	0.39412664195984953	0.49655740723976216	0.03281336119762211	0.5950326790515301	0.5771971123190415	0.09796498413425388	0.803401428177773	0.6715749982617328	0.1858659164855162	0.9001018007509173	0.6765377302919175	0.20717435659403707	0.9167389144516825	0.718601315999881	0.22034147541964957	0.8811207763926279	0.7018719238463932	0.22903451792442528	0.06208236697642857	0.3632773596459251	0.02211765182976674	-0.12684775783738286	0.2841081609220937	0.083727235730028	-0.30255349295185135	0.14296978847987782	0.1409112996894177	-0.3404061930721294	0.0854877825210643	0.20165137389062335	-0.37381724764827723	0.06745804076356277	0.18783664440559364	-0.38596530457193245	0.08589606282844169	0.1694328847547033
54	0.9152542372881356	0.32443950483969086	0.512479414716487	0.4875769444887165	0.29182657523612004	0.5171441403159346	0.9028204798368206	0.2157219771822867	0.5678830831630957	1.3272174140943507	0.26094582474771233	0.40639879858225514	1.3305875314349147	0.30740990645693067	0.4699332572309609	1.3447788875825324	0.16543298503968154	0.664274174314999	1.4335903971130637	0.09666632138979774	0.44935765510848064	0.49452899080569257	0.05414164730003301	0.46997280555951815	0.9092714368605612	0.029033217363585176	0.4891306757943414	1.3322068428480085	0.14416325680068828	0.37235093563042226	1.314877100649748	0.08501647078631816	0.3628300608768658	1.3142826181349332	0.009342043194973493	0.5225719791197015	1.378053625731248	0.2406762756210606	0.43457559946286156	-0.03972413266209138	0.2587457539568076	0.4343621977874427	-0.2885855990889257	0.30874143450957076	0.33728256226554426	-0.16921934257609347	0.40216721906761643	0.4824585955785898	0.02322794339201294	0.5922044841154886	0.5876242664408076	0.05442094045487815	0.8038630301241131	0.6929982035759785	0.12457366762153135	0.9390849497085133	0.7001988007673835	0.17555085067244677	0.9399297526356638	0.7010796226544687	0.18675382362225817	0.900129289668938	0.7121686206594061	0.19159704942699035	0.06258447226177576	0.36264144601735665	0.017755139796055273	-0.12106681728161081	0.2836548119940315	0.038026607690048404	-0.33723508819851356	0.17838191444285137	0.11340319168566713	-0.34758092135273744	0.08200565182777249	0.140641100944667	-0.4095102232962537	0.11110939543629457	0.12788061992792224	-0.4408964968572726	0.13146826522352004	0.12681424894460383
55	0.9322033898305084	0.32456139678447726	0.5126838462909802	0.4871282176286649	0.29192837274551114	0.5171892715214449	0.8897010556111652	0.22913667076126415	0.5575387310079865	1.3203808510361905	0.2616763492998643	0.4349123753450929	1.3440393922561042	0.3223989130006273	0.47260147890863824	1.34161301809404	0.17751326951294402	0.6493795331893061	1.4192411378342948	0.10663176505818424	0.438354607083982	0.4867852149057466	0.0455687841223063	0.48179714654024686	0.9106628262767332	0.029554944995084226	0.4918856124311918	1.329220999854137	0.15303983898620857	0.3902463139312723	1.3227390962642431	0.08310001624849042	0.37828839485350396	1.3235696756368192	0.010277331403582862	0.5133062072314972	1.3726632378983026	0.2421179815354711	0.4223915100427085	-0.05158778168454907	0.26042021086965034	0.4223498896406155	-0.292728296710636	0.3165037326784354	0.32680567639323305	-0.17659955708616973	0.4019731426891546	0.4818996426178905	0.011947635488814393	0.6036905619653652	0.5724520165630073	0.040777020685892486	0.7998355724170231	0.6903778235888849	0.06724940965583949	0.9289734567569901	0.7143016490096151	0.11249502252390597	0.9305441398096782	0.7423223408475038	0.11575774493002786	0.9022055498383417	0.7254454316327411	0.11707110094478809	0.06543678219258574	0.3672655608306775	0.007270200144091842	-0.11937884527894005	0.2843909451339474	0.015365399176754124	-0.3193100024641166	0.15760747844949044	0.05566128765934094	-0.36169840134790876	0.1062675999176503	0.1069539040801192	-0.4174172005088822	0.11601773811017328	0.07811417716417819	-0.38525071218700546	0.07947431374661611	0.05660949419915895
